<!DOCTYPE svg PUBLIC "-//W3C//DTD SVG 20010904//EN" "http://www.w3.org/TR/2001/REC-SVG-20010904/DTD/svg10.dtd">
<svg xmlns="http://www.w3.org/2000/svg" version="1.0" width="184.000000pt" height="184.000000pt" viewBox="0 0 184.000000 184.000000" preserveAspectRatio="xMidYMid meet">

<g transform="translate(0.000000,184.000000) scale(0.100000,-0.100000)" fill="#5A3E26" stroke="#5A3E26">
<path d="M710 1652 l0 -132 -26 6 c-25 6 -26 5 -20 -23 9 -42 12 -151 3 -159 -6 -6 -111 11 -145 24 -13 4 -11 -2 7 -29 12 -19 40 -71 61 -115 21 -45 54 -106 73 -136 30 -46 70 -138 63 -145 -1 -2 -52 22 -112 52 -60 30 -115 55 -121 55 -9 0 -11 -10 -6 -30 6 -34 7 -34 -70 -16 -49 12 -59 11 -65 -1 -7 -11 -20 -12 -79 -3 -39 6 -89 10 -110 8 l-38 -3 40 -24 c98 -61 145 -112 125 -136 -9 -11 1 -24 49 -62 34 -26 61 -55 61 -64 0 -9 -18 -33 -40 -53 -22 -20 -39 -36 -38 -37 2 0 28 -7 58 -14 161 -39 265 -67 269 -70 6 -7 -66 -143 -98 -184 -16 -22 -20 -33 -11 -29 97 35 161 50 175 38 12 -10 25 -6 71 20 57 33 61 33 78 -5 6 -12 67 54 104 112 15 24 30 43 35 43 4 0 7 -37 7 -83 0 -97 -30 -213 -78 -302 -38 -69 -40 -90 -10 -106 18 -10 24 -8 39 10 32 39 71 234 75 370 3 69 6 126 7 128 2 1 39 -13 83 -32 93 -41 106 -42 119 -12 9 19 19 22 76 25 54 2 68 6 72 21 3 12 29 25 83 41 l78 23 -61 31 c-117 59 -153 80 -151 87 2 5 26 36 55 71 28 35 75 92 103 128 l51 65 -41 8 c-23 5 -44 15 -47 23 -3 9 4 48 16 87 21 71 21 72 2 87 -18 13 -19 21 -11 75 4 33 16 80 24 104 9 24 14 46 12 49 -7 6 -92 -65 -110 -93 -10 -14 -22 -22 -33 -19 -12 3 -32 -9 -57 -35 -36 -37 -41 -39 -57 -25 -15 14 -19 11 -50 -38 -19 -29 -47 -80 -63 -113 l-28 -60 -9 30 c-5 17 -7 71 -3 120 4 65 1 108 -10 155 -9 36 -16 82 -16 102 0 69 -8 72 -55 20 -42 -46 -43 -47 -63 -28 -12 10 -31 42 -43 72 -19 46 -26 53 -44 48 -19 -5 -29 7 -71 81 -86 151 -83 151 -84 -3z m66 -18 c9 -21 22 -43 30 -51 15 -15 16 -22 16 -63 0 -23 0 -23 5 -2 7 34 43 30 44 -5 0 -24 1 -25 8 -8 8 19 8 19 16 -5 10 -31 44 -77 62 -84 8 -3 30 6 48 20 l33 25 -5 -23 c-4 -18 -3 -20 6 -8 16 23 14 -36 -3 -93 -8 -26 -10 -45 -6 -42 5 3 11 19 15 35 4 17 11 28 16 25 10 -7 5 -263 -5 -305 l-7 -25 12 25 c8 19 13 21 17 10 24 -70 20 -72 77 40 l54 105 1 -55 c0 -30 4 -81 10 -114 9 -54 7 -62 -16 -102 -30 -51 -41 -55 -47 -16 -2 15 -3 8 -2 -16 2 -37 -6 -58 -56 -145 -32 -56 -60 -106 -63 -112 -7 -21 -17 4 -23 58 -3 30 0 78 7 106 7 29 10 55 7 58 -4 3 -11 -16 -18 -42 -10 -38 -14 -44 -21 -30 -7 12 -2 40 16 97 32 96 29 115 -4 27 -20 -52 -25 -59 -31 -41 -6 15 1 43 21 91 39 91 38 115 -1 32 -16 -35 -31 -62 -34 -60 -2 3 -11 31 -19 62 l-15 58 48 143 c27 78 51 158 55 176 7 35 -84 -201 -99 -256 -7 -26 -8 -27 -16 -9 -4 11 -20 64 -34 118 -25 91 -26 102 -15 163 7 35 10 67 7 70 -3 3 -9 -15 -12 -40 -4 -25 -11 -46 -15 -46 -4 0 -15 27 -25 60 -26 86 -30 67 -6 -28 12 -44 21 -84 21 -88 0 -5 -28 18 -62 51 -63 61 -51 42 32 -50 41 -45 48 -60 69 -148 13 -54 21 -100 19 -102 -2 -3 -51 32 -109 77 -204 159 -201 156 -139 99 30 -29 103 -90 161 -136 l106 -84 16 -73 c8 -40 14 -74 13 -75 -2 -2 -25 8 -52 23 -38 20 -44 21 -24 5 14 -11 39 -28 57 -38 26 -14 53 -53 36 -53 -10 0 -49 25 -116 72 -101 72 -71 38 37 -42 l92 -68 17 -78 c9 -43 15 -79 13 -81 -2 -3 -26 7 -54 21 -42 21 -57 37 -95 103 -66 114 -85 132 -31 31 25 -49 43 -88 40 -88 -4 0 -33 13 -66 30 -52 26 -66 40 -114 113 -30 46 -63 90 -72 98 -9 7 9 -25 40 -73 31 -47 56 -89 56 -92 0 -4 -30 9 -67 28 -49 25 -85 54 -131 105 l-63 71 40 0 c35 0 41 3 41 22 0 21 0 21 27 -3 15 -13 21 -16 14 -6 -12 15 -12 17 5 11 10 -4 54 -27 96 -51 43 -23 82 -43 88 -43 12 0 4 62 -11 92 -14 26 -11 46 4 28 7 -8 21 -22 32 -30 11 -8 -6 14 -38 50 -57 63 -124 166 -114 176 2 2 10 -2 17 -11 7 -8 17 -15 23 -15 6 0 -8 19 -31 43 -24 24 -45 54 -47 68 -4 23 -3 24 49 21 46 -3 55 -1 60 15 8 28 9 116 1 136 -10 23 4 21 34 -5 l26 -23 -19 22 c-22 27 -15 63 9 43 13 -11 13 -8 0 23 -17 41 -20 71 -6 62 6 -3 6 7 0 27 -12 44 -12 48 7 48 8 0 22 -16 30 -36z m663 -296 c-11 -21 -11 -22 4 -10 14 12 15 11 8 -16 -5 -16 -17 -42 -26 -58 -14 -23 -14 -25 -1 -10 15 19 16 19 16 -11 0 -17 7 -36 15 -43 14 -11 14 -15 0 -36 -8 -12 -10 -24 -5 -26 12 -4 2 -19 -34 -46 -16 -12 -24 -22 -18 -22 6 0 14 5 17 10 13 20 25 9 19 -17 -5 -19 -2 -30 11 -39 16 -12 16 -16 4 -30 -13 -16 -12 -16 8 -6 12 7 27 12 33 12 19 0 0 -20 -49 -52 -44 -29 -43 -31 4 -12 18 7 19 6 5 -11 -8 -10 -28 -27 -45 -38 -16 -10 -22 -17 -12 -13 9 3 17 1 17 -4 0 -14 -40 -38 -107 -66 -64 -26 -60 -32 6 -9 54 19 53 3 -1 -24 -24 -12 -33 -19 -20 -16 26 7 29 -9 5 -25 -12 -8 -13 -10 -3 -7 8 2 26 0 40 -5 l25 -9 -33 -21 c-17 -11 -32 -22 -32 -25 0 -2 15 5 34 16 41 26 51 26 83 1 l26 -20 -24 -2 c-13 0 -4 -4 21 -8 43 -7 42 -7 -20 -7 -36 -1 -92 2 -125 6 l-60 6 32 18 c17 9 35 22 39 28 7 13 -26 -4 -68 -32 -14 -11 -37 -19 -50 -19 -18 0 -13 6 27 30 28 16 43 30 35 30 -8 0 -28 -9 -45 -20 -17 -11 -38 -17 -50 -14 -13 3 -27 -1 -34 -10 -15 -18 -8 -20 20 -6 15 8 19 7 19 -5 0 -9 -9 -15 -22 -15 -13 0 -34 -3 -48 -7 -25 -6 -25 -6 -6 15 11 12 43 34 73 48 29 15 52 29 49 31 -3 4 -57 -18 -109 -45 -4 -2 -4 3 -1 11 3 8 31 27 62 42 40 19 48 25 27 21 -16 -2 -39 -8 -50 -12 -18 -6 -18 -5 -5 8 8 9 48 28 88 43 40 15 72 29 70 31 -2 2 -32 -5 -66 -15 -43 -13 -62 -16 -62 -8 1 26 31 48 121 89 106 49 159 77 159 83 0 2 -34 -12 -76 -32 -93 -43 -154 -64 -154 -55 0 4 15 34 33 67 26 47 48 70 101 106 92 63 118 91 32 35 -38 -25 -71 -44 -73 -42 -3 2 9 28 25 57 16 30 43 80 61 112 44 81 30 71 -21 -15 l-43 -73 -3 52 c-4 70 18 123 52 123 17 0 33 10 48 30 26 35 44 40 27 8z m-144 -175 c-11 -86 -38 -159 -54 -149 -12 8 -22 134 -14 179 7 46 26 44 34 -4 l6 -34 2 36 c1 32 15 59 31 59 4 0 1 -39 -5 -87z m-826 -240 c35 -37 59 -69 53 -71 -6 -2 -37 10 -69 26 -87 44 -119 48 -38 5 68 -36 69 -37 40 -43 -25 -5 -20 -7 27 -11 65 -6 103 -28 71 -40 -12 -5 -6 -8 22 -9 22 0 64 -13 95 -29 l54 -28 -123 -29 c-68 -15 -119 -30 -112 -32 6 -2 67 8 136 23 107 23 127 24 149 13 25 -13 24 -14 -40 -37 -36 -13 -63 -25 -61 -27 2 -2 35 7 74 20 41 14 76 21 83 16 9 -6 1 -12 -26 -19 -34 -10 -78 -31 -64 -31 3 0 27 7 54 15 27 8 58 15 68 15 31 0 11 -17 -28 -25 -20 -3 -34 -9 -31 -12 3 -3 29 1 56 8 40 10 54 10 63 1 9 -9 5 -12 -18 -13 -16 0 -47 -7 -69 -15 -40 -14 -40 -14 -6 -9 19 3 60 8 90 10 l56 5 -40 -15 c-22 -9 -78 -22 -125 -30 -47 -8 -95 -17 -108 -21 -17 -5 -21 -3 -17 9 4 8 21 19 38 24 27 9 21 10 -33 7 l-65 -4 34 15 c39 19 37 30 -3 15 -34 -13 -106 -13 -106 -1 0 5 10 12 23 14 12 2 -7 2 -43 -1 -45 -3 -62 -1 -55 6 6 5 19 13 30 16 11 3 -9 2 -44 -1 -45 -4 -62 -2 -57 6 4 6 2 11 -5 11 -8 0 -8 4 1 15 7 8 20 15 29 15 9 0 23 5 31 11 12 8 9 9 -12 5 -16 -4 -28 -3 -28 1 0 17 16 31 40 36 23 4 23 4 -5 6 -26 1 -85 40 -85 55 0 3 19 7 43 9 32 3 28 4 -22 5 -52 2 -62 5 -57 17 3 8 2 15 -3 15 -5 0 -11 14 -13 31 -4 28 -3 30 21 25 24 -5 23 -4 -4 9 -16 8 -35 14 -41 15 -6 0 -18 8 -25 17 -12 15 -12 16 4 10 46 -18 47 -15 2 9 l-50 26 45 -7 c25 -3 60 -15 79 -26 21 -12 30 -15 23 -6 -15 18 -5 47 16 47 9 0 45 -30 81 -67z m782 -329 c28 -14 49 -28 46 -31 -9 -8 -69 15 -97 37 -35 28 -9 25 51 -6z m155 19 c-30 -3 -36 -7 -25 -14 14 -11 -16 -8 -71 5 -14 4 -7 -2 15 -13 27 -13 34 -20 20 -20 -21 -1 -105 34 -105 44 0 3 46 4 103 3 56 -1 84 -3 63 -5z m-211 -25 c25 -12 45 -26 45 -30 0 -11 -7 -10 -33 3 -22 10 -22 10 -2 -6 17 -14 18 -17 5 -25 -17 -11 -34 -7 -104 27 -36 17 -42 23 -21 18 17 -3 48 -15 69 -25 62 -30 53 -17 -11 18 -32 17 -51 31 -43 31 8 0 26 -6 40 -14 36 -21 49 -18 20 5 -33 26 -21 25 35 -2z m-255 -43 c-7 -9 -15 -13 -18 -10 -3 2 1 11 8 20 7 9 15 13 18 10 3 -2 -1 -11 -8 -20z m24 -12 c-56 -87 -67 -103 -72 -99 -5 6 15 41 55 94 29 39 42 43 17 5z m-77 -20 c-40 -65 -41 -67 -28 -59 6 4 18 20 26 37 9 16 20 29 25 29 8 0 -20 -70 -34 -87 -1 -1 -14 1 -29 5 l-27 7 35 53 c40 59 68 72 32 15z m-72 17 c-3 -5 -17 -10 -30 -10 -13 0 -47 -9 -75 -20 -62 -24 -63 -24 -51 -3 5 10 29 23 53 29 55 15 111 17 103 4z m29 -27 c-10 -16 -24 -40 -31 -55 -11 -21 -43 -47 -43 -34 0 13 55 98 68 106 25 14 26 12 6 -17z m-74 3 c0 -8 -73 -50 -89 -52 -9 -1 -25 -5 -36 -9 -18 -7 -18 -6 -5 8 20 21 130 66 130 53z m6 -60 c-32 -54 -54 -72 -31 -25 l16 34 -21 -27 c-12 -16 -27 -28 -33 -28 -8 0 -7 4 1 12 23 23 12 31 -13 8 -14 -13 -39 -24 -57 -25 l-31 -2 32 29 c18 16 39 27 47 24 8 -3 36 8 62 24 25 16 48 27 50 25 3 -2 -7 -24 -22 -49z m204 -263 c-23 -70 -35 -91 -46 -80 -3 3 3 21 14 39 11 18 26 52 33 76 7 23 14 40 17 38 2 -3 -6 -35 -18 -73z m-30 -113 c0 -5 -6 -10 -14 -10 -8 0 -18 5 -21 10 -3 6 3 10 14 10 12 0 21 -4 21 -10z"/>
<path d="M885 1405 c-3 -31 -5 -59 -2 -61 3 -3 8 20 12 51 3 31 5 59 2 61 -3 3 -8 -20 -12 -51z"/>
<path d="M910 1336 c-12 -36 -20 -74 -18 -83 2 -10 14 18 26 61 12 44 20 81 18 84 -2 2 -14 -26 -26 -62z"/>
<path d="M956 1354 c-4 -9 -4 -19 -1 -22 2 -3 7 3 11 12 4 9 4 19 1 22 -2 3 -7 -3 -11 -12z"/>
<path d="M720 1352 c0 -5 7 -15 15 -22 8 -7 15 -8 15 -2 0 5 -7 15 -15 22 -8 7 -15 8 -15 2z"/>
<path d="M650 1296 c0 -2 8 -10 18 -17 15 -13 16 -12 3 4 -13 16 -21 21 -21 13z"/>
<path d="M916 1264 c-4 -14 -5 -29 -2 -31 3 -3 8 7 12 21 3 15 4 29 1 32 -2 3 -8 -7 -11 -22z"/>
<path d="M950 1289 c0 -2 -9 -28 -20 -56 -11 -29 -16 -53 -12 -53 9 0 44 102 37 109 -3 2 -5 2 -5 0z"/>
<path d="M800 1255 c13 -14 28 -25 33 -25 6 0 0 11 -13 25 -13 14 -28 25 -33 25 -6 0 0 -11 13 -25z"/>
<path d="M700 1253 c0 -11 70 -66 76 -60 3 2 -13 19 -36 37 -22 17 -40 28 -40 23z"/>
<path d="M759 1236 c26 -28 31 -31 31 -17 0 5 -12 17 -27 26 l-28 18 24 -27z"/>
<path d="M1051 1188 c0 -9 -4 -25 -7 -35 -5 -17 -5 -17 6 0 6 10 9 25 7 35 -4 15 -5 15 -6 0z"/>
<path d="M995 1113 c-14 -31 -28 -68 -31 -82 -5 -26 -5 -25 11 3 19 32 56 136 49 136 -2 0 -16 -26 -29 -57z"/>
<path d="M976 1152 c-13 -21 -25 -62 -18 -62 9 0 34 62 28 68 -2 2 -7 -1 -10 -6z"/>
<path d="M835 1045 c16 -13 32 -22 34 -19 7 6 -40 44 -54 43 -5 0 3 -11 20 -24z"/>
<path d="M1182 1045 c0 -16 2 -22 5 -12 2 9 2 23 0 30 -3 6 -5 -1 -5 -18z"/>
<path d="M783 1042 c25 -27 96 -76 103 -70 2 3 -17 21 -43 40 -68 49 -81 55 -60 30z"/>
<path d="M1060 975 c-6 -16 -9 -38 -7 -49 2 -15 7 -8 16 23 14 49 7 69 -9 26z"/>
<path d="M1102 905 c0 -27 4 -61 8 -75 6 -20 8 -17 8 20 0 25 -4 59 -8 75 -7 26 -8 23 -8 -20z"/>
<path d="M654 913 c20 -38 45 -70 46 -58 0 11 -48 85 -56 85 -2 0 2 -12 10 -27z"/>
<path d="M1072 860 c0 -30 4 -66 8 -80 7 -22 8 -19 8 15 1 22 -3 58 -7 80 -9 40 -9 40 -9 -15z"/>
<path d="M599 858 c17 -27 34 -48 37 -48 10 0 -25 56 -47 75 -17 15 -15 9 10 -27z"/>
<path d="M740 836 c0 -15 53 -106 62 -106 5 0 2 12 -6 28 -23 41 -56 88 -56 78z"/>
<path d="M1053 765 c0 -27 2 -38 4 -22 2 15 2 37 0 50 -2 12 -4 0 -4 -28z"/>
<path d="M914 771 c17 -17 34 -31 39 -31 14 0 -23 39 -48 52 -14 8 -12 2 9 -21z"/>
<path d="M1020 738 c0 -24 5 -50 10 -58 7 -11 10 2 10 43 0 31 -4 57 -10 57 -5 0 -10 -19 -10 -42z"/>
<path d="M894 722 c14 -28 31 -52 37 -52 12 0 -28 75 -50 93 -7 6 -2 -12 13 -41z"/>
<path d="M940 716 c0 -15 34 -78 37 -69 4 11 -23 73 -32 73 -3 0 -5 -2 -5 -4z"/>
<path d="M1345 1260 c-4 -12 -5 -24 -2 -27 3 -2 8 5 12 17 4 12 5 24 2 27 -3 2 -8 -5 -12 -17z"/>
<path d="M1395 1185 c-16 -14 -25 -25 -19 -25 6 0 21 11 34 25 30 32 24 31 -15 0z"/>
<path d="M1360 1120 c-14 -11 -20 -20 -15 -20 6 0 21 9 35 20 14 11 21 20 15 20 -5 0 -21 -9 -35 -20z"/>
<path d="M1300 1010 c-13 -8 -13 -10 2 -10 9 0 20 5 23 10 8 13 -5 13 -25 0z"/>
<path d="M1303 983 c-18 -9 -33 -20 -33 -25 0 -5 18 1 40 12 22 11 40 23 40 25 0 8 -13 5 -47 -12z"/>
<path d="M1285 945 c-29 -14 -42 -24 -30 -24 11 0 40 11 65 24 58 31 31 31 -35 0z"/>
<path d="M1236 845 c-43 -12 -84 -35 -61 -35 20 0 115 34 115 42 0 4 -1 8 -2 7 -2 0 -25 -7 -52 -14z"/>
<path d="M1235 730 c-3 -6 1 -7 9 -4 18 7 21 14 7 14 -6 0 -13 -4 -16 -10z"/>
<path d="M1378 663 c7 -3 16 -2 19 1 4 3 -2 6 -13 5 -11 0 -14 -3 -6 -6z"/>
<path d="M1252 1125 c0 -16 2 -22 5 -12 2 9 2 23 0 30 -3 6 -5 -1 -5 -18z"/>
<path d="M396 945 c4 -9 16 -21 28 -27 19 -10 19 -9 -3 16 -28 30 -33 32 -25 11z"/>
<path d="M353 863 c9 -2 23 -2 30 0 6 3 -1 5 -18 5 -16 0 -22 -2 -12 -5z"/>
<path d="M415 780 c-8 -13 15 -13 35 0 12 8 11 10 -7 10 -12 0 -25 -4 -28 -10z"/>
<path d="M508 773 c7 -3 16 -2 19 1 4 3 -2 6 -13 5 -11 0 -14 -3 -6 -6z"/>
<path d="M550 750 c-12 -8 -12 -10 5 -10 11 0 27 5 35 10 12 8 12 10 -5 10 -11 0 -27 -5 -35 -10z"/>
<path d="M433 653 c9 -2 23 -2 30 0 6 3 -1 5 -18 5 -16 0 -22 -2 -12 -5z"/>
<path d="M595 650 c-7 -12 2 -12 30 0 19 8 19 9 -2 9 -12 1 -25 -3 -28 -9z"/>
<path d="M649 413 c-13 -16 -12 -17 4 -4 16 13 21 21 13 21 -2 0 -10 -8 -17 -17z"/>
</g>
</svg>